#!OML:ASF H:\Male1\Project 1\Capture day 1\Session 1\Male1.ASF
:FULLY-SPECIFIED
:DEGREES
402
root -0.340285 15.3439 -3.65593 0.719265 -31.8707 5.05685
lowerback 18.0094 0.213046 4.95711
upperback 13.309 0.450423 5.41245
thorax 4.32941 0.157709 2.91481
lowerneck -7.41791 -10.408 -4.02088
upperneck -1.47547 -14.0949 18.5729
head 2.47825 -6.74528 5.47492
rclavicle 7.95139e-015 -9.38264e-014
rhumerus 19.3261 7.70551 -68.4862
rradius 34.8536
rwrist -63.3294
rhand -25.5322 -24.0401
rfingers 7.12502
rthumb 0.99754 -54.0176
lclavicle 7.95139e-015 -9.38264e-014
lhumerus 17.4386 -50.2411 84.4308
lradius 34.3634
lwrist 20.3165
lhand -14.9 33.1909
lfingers 7.12502
lthumb 11.2612 62.8686
rfemur -21.5454 -0.282879 16.8318
rtibia 34.0211
rfoot -28.6036 -29.0582
rtoes -1.18883
lfemur -16.2819 -12.1963 -21.094
ltibia 36.36
lfoot -17.5257 15.3407
ltoes -13.4547
403
root -0.405287 15.3449 -3.6557 0.819907 -32.2225 4.98434
lowerback 17.9653 0.185344 4.97185
upperback 13.2958 0.411576 5.34115
thorax 4.33796 0.141489 2.83479
lowerneck -7.45036 -10.2897 -4.05137
upperneck -1.39721 -13.9389 18.4361
head 2.47959 -6.66478 5.44911
rclavicle 3.33958e-014 -1.59028e-014
rhumerus 19.9506 5.57409 -69.4649
rradius 33.7833
rwrist -62.0291
rhand -25.0834 -23.8355
rfingers 7.12502
rthumb 1.43106 -53.8105
lclavicle 3.33958e-014 -1.59028e-014
lhumerus 18.4273 -49.8629 84.5994
lradius 32.828
lwrist 20.0342
lhand -14.4578 32.2463
lfingers 7.12502
lthumb 11.6877 61.9003
rfemur -21.5592 0.0345138 17.1511
rtibia 34.047
rfoot -28.9687 -28.9094
rtoes -0.269354
lfemur -16.833 -12.6327 -21.3114
ltibia 36.3874
lfoot -17.5544 15.1438
ltoes -12.232
404
root -0.467904 15.3463 -3.65156 0.958734 -32.6498 4.80199
lowerback 17.9277 0.165404 5.06616
upperback 13.2734 0.393786 5.25803
thorax 4.33433 0.141494 2.69438
lowerneck -7.468 -10.165 -4.02487
upperneck -1.2522 -13.7891 18.3112
head 2.49594 -6.5839 5.41678
rclavicle -4.13472e-014 3.65764e-014
rhumerus 20.3439 3.89896 -70.3367
rradius 33.0799
rwrist -61.0973
rhand -24.677 -23.7218
rfingers 7.12502
rthumb 1.82351 -53.6938
lclavicle -4.13472e-014 3.65764e-014
lhumerus 18.9105 -49.335 84.8957
lradius 31.9646
lwrist 20.0502
lhand -14.0339 31.1201
lfingers 7.12502
lthumb 12.0964 60.7504
rfemur -21.4965 0.393081 17.5686
rtibia 33.9768
rfoot -29.2668 -28.7849
rtoes 0.499347
lfemur -17.3665 -13.0497 -21.3908
ltibia 36.3871
lfoot -17.5532 14.8055
ltoes -11.4107
405
root -0.528536 15.3475 -3.64355 1.11322 -33.1408 4.5279
lowerback 17.9014 0.155765 5.20428
upperback 13.2526 0.394427 5.18639
thorax 4.32783 0.152606 2.53939
lowerneck -7.50464 -10.0448 -4.01445
upperneck -1.03867 -13.6557 18.2198
head 2.54168 -6.50548 5.3929
rclavicle 5.40694e-014 1.27222e-014
rhumerus 20.4954 2.80495 -70.974
rradius 32.73
rwrist -60.5289
rhand -24.3206 -23.702
rfingers 7.12502
rthumb 2.16771 -53.6708
lclavicle 5.40694e-014 1.27222e-014
lhumerus 19.0447 -48.7616 85.2304
lradius 31.6264
lwrist 20.3285
lhand -13.6847 29.7505
lfingers 7.12502
lthumb 12.4331 59.3608
rfemur -21.341 0.765486 18.0706
rtibia 33.8197
rfoot -29.4882 -28.694
rtoes 0.969299
lfemur -17.8679 -13.4338 -21.3565
ltibia 36.3804
lfoot -17.5132 14.3591
ltoes -11.0434
406
root -0.587314 15.3477 -3.63168 1.25296 -33.6778 4.2036
lowerback 17.8826 0.177701 5.37154
upperback 13.2332 0.439727 5.12006
thorax 4.31979 0.187623 2.36785
lowerneck -7.52702 -9.9531 -4.00301
upperneck -0.814884 -13.5645 18.1709
head 2.59635 -6.44716 5.37841
rclavicle 2.8625e-014 -6.36111e-015
rhumerus 20.3686 2.2059 -71.3582
rradius 32.6842
rwrist -60.2268
rhand -23.9898 -23.7881
rfingers 7.12502
rthumb 2.48718 -53.7533
lclavicle 2.8625e-014 -6.36111e-015
lhumerus 18.9607 -48.3556 85.4888
lradius 31.6886
lwrist 20.7946
lhand -13.5221 28.3463
lfingers 7.12502
lthumb 12.5899 57.9469
rfemur -21.0936 1.11187 18.6185
rtibia 33.602
rfoot -29.5892 -28.639
rtoes 1.00195
lfemur -18.3239 -13.7708 -21.2577
ltibia 36.3828
lfoot -17.4437 13.8876
ltoes -11.0887
407
root -0.644301 15.3467 -3.61631 1.35894 -34.2373 3.88
lowerback 17.8565 0.229185 5.51644
upperback 13.2093 0.52045 5.06087
thorax 4.31 0.238571 2.21165
lowerneck -7.51595 -9.88538 -3.98298
upperneck -0.605357 -13.5038 18.1218
head 2.64404 -6.40625 5.36194
rclavicle 6.67916e-014 -5.40694e-014
rhumerus 19.9642 2.05897 -71.5109
rradius 32.9021
rwrist -60.1592
rhand -23.7006 -23.9517
rfingers 7.12502
rthumb 2.76654 -53.9135
lclavicle 6.67916e-014 -5.40694e-014
lhumerus 18.6421 -48.1466 85.6731
lradius 32.1171
lwrist 21.3016
lhand -13.6368 27.086
lfingers 7.12502
lthumb 12.4793 56.6934
rfemur -20.7788 1.40448 19.1669
rtibia 33.3557
rfoot -29.5306 -28.6427
rtoes 0.497492
lfemur -18.7414 -14.0474 -21.1484
ltibia 36.404
lfoot -17.363 13.4481
ltoes -11.4699
408
root -0.699995 15.3448 -3.59802 1.41676 -34.7985 3.60396
lowerback 17.8188 0.293295 5.57305
upperback 13.1814 0.605878 5.01612
thorax 4.29964 0.28522 2.11962
lowerneck -7.50867 -9.81746 -3.94504
upperneck -0.410382 -13.4369 17.9869
head 2.67912 -6.36464 5.31786
rclavicle -3.02153e-014 -6.52014e-014
rhumerus 19.3362 2.34211 -71.4817
rradius 33.3405
rwrist -60.3127
rhand -23.4642 -24.1742
rfingers 7.12502
rthumb 2.99484 -54.133
lclavicle -3.02153e-014 -6.52014e-014
lhumerus 18.098 -48.0672 85.7984
lradius 32.8533
lwrist 21.7305
lhand -14.0602 26.1171
lfingers 7.12502
lthumb 12.071 55.7489
rfemur -20.4222 1.64916 19.6681
rtibia 33.1084
rfoot -29.4148 -28.709
rtoes -0.440786
lfemur -19.1337 -14.2466 -21.0773
ltibia 36.4495
lfoot -17.2924 13.0294
ltoes -12.1182
409
root -0.754775 15.3432 -3.5773 1.44168 -35.3439 3.37439
lowerback 17.7561 0.364478 5.5685
upperback 13.1376 0.693226 4.97202
thorax 4.28243 0.329038 2.06193
lowerneck -7.46115 -9.74507 -3.87944
upperneck -0.265927 -13.3538 17.7793
head 2.68312 -6.32149 5.25225
rclavicle 7.4743e-014 -4.29375e-014
rhumerus 18.5199 2.91727 -71.3736
rradius 33.9371
rwrist -60.6505
rhand -23.3191 -24.4551
rfingers 7.12502
rthumb 3.13495 -54.4118
lclavicle 7.4743e-014 -4.29375e-014
lhumerus 17.2909 -48.1523 85.8533
lradius 33.942
lwrist 22.0269
lhand -14.7294 25.5876
lfingers 7.12502
lthumb 11.4258 55.2563
rfemur -20.0458 1.87995 20.1145
rtibia 32.8759
rfoot -29.2981 -28.7916
rtoes -1.56964
lfemur -19.5223 -14.3548 -21.0484
ltibia 36.5216
lfoot -17.2486 12.565
ltoes -13.0142
410
root -0.80873 15.3419 -3.55458 1.46601 -35.8661 3.16444
lowerback 17.6646 0.429642 5.54829
upperback 13.0833 0.770452 4.91956
thorax 4.26786 0.367609 2.00547
lowerneck -7.42534 -9.66357 -3.79427
upperneck -0.15877 -13.2519 17.5279
head 2.67154 -6.27181 5.17235
rclavicle -1.59028e-015 2.06736e-014
rhumerus 17.5643 3.69486 -71.2739
rradius 34.676
rwrist -61.1375
rhand -23.3459 -24.7627
rfingers 7.12502
rthumb 3.10903 -54.7198
lclavicle -1.59028e-015 2.06736e-014
lhumerus 16.2439 -48.3235 85.8383
lradius 35.4126
lwrist 22.2495
lhand -15.4076 25.6313
lfingers 7.12502
lthumb 10.7716 55.3351
rfemur -19.6693 2.13491 20.5273
rtibia 32.6577
rfoot -29.2503 -28.9063
rtoes -2.85468
lfemur -19.9356 -14.3736 -21.041
ltibia 36.6209
lfoot -17.2509 12.0021
ltoes -14.0728
